<svg id="Layer_1" data-name="Layer 1" xmlns="http://www.w3.org/2000/svg" viewBox="0 0 1455.82 1101.36"><path d="M272,357.69v386h911.81v-386Zm865,329.64H318.79V414H1137Z"/><path d="M971.41,555.52q0,47-33.24,80.26a122.46,122.46,0,0,1-12.06,10.61V669H991V506.88H1072V442H857.91q47,0,80.26,33.24T971.41,555.52Z"/><path d="M848.21,668.65q40.81-3.1,70.57-32.87,3.9-3.9,7.33-8Q952,597,952,555.52q0-47-33.24-80.26Q889,445.5,848.21,442.39q4.77-.37,9.7-.37H845v.17c-2.15-.12-4.32-.17-6.52-.17H725V669h113.5Q843.44,669,848.21,668.65Zm40.57-161.77a69.94,69.94,0,1,1-50.26-21.31q3.3,0,6.52.3A69.69,69.69,0,0,1,888.78,506.88Z"/><path d="M439.15,588,520.22,669H714.16V604.16H546.81L530.6,588H714.16V523.09H600.89a82.31,82.31,0,0,0,0-16.21H714.16V442H530.79v0c-.81,0-1.63,0-2.46,0h-154v64.86h154a8.11,8.11,0,1,1,0,16.21h-154V669h64.86Z"/></svg>