<svg id="Layer_1" data-name="Layer 1" xmlns="http://www.w3.org/2000/svg" viewBox="0 0 2000 2000"><defs><style>.cls-1{fill:#e30613;}.cls-2{fill:#fff;}</style></defs><path d="M544.1,757.81v386h911.8v-386Zm865,329.64H590.87V814.16h818.26Z"/><rect class="cls-1" x="544.1" y="1153.18" width="911.81" height="89.01"/><path class="cls-2" d="M614.05,1184.47q3.44,3.6,3.44,9.86v18.1h-7v-17.54a8.71,8.71,0,0,0-1.66-5.69,5.87,5.87,0,0,0-4.79-2,7.35,7.35,0,0,0-5.57,2.23,8.1,8.1,0,0,0-2.13,5.85v17.16h-7v-17.54a8.55,8.55,0,0,0-1.69-5.69,5.93,5.93,0,0,0-4.82-2,7.38,7.38,0,0,0-5.57,2.23,8.1,8.1,0,0,0-2.13,5.85v17.16h-7V1181.5h6.26l.06,3.63a11,11,0,0,1,9.14-4.26,12.23,12.23,0,0,1,5.92,1.44,10.15,10.15,0,0,1,4.1,4q3.69-5.44,11-5.45Q610.61,1180.87,614.05,1184.47Z"/><path class="cls-2" d="M656.5,1181.5v30.93h-6.27l-.06-4.14a12.18,12.18,0,0,1-4.76,3.54,16,16,0,0,1-6.51,1.29,15.48,15.48,0,0,1-8-2,14.13,14.13,0,0,1-5.42-5.73,19.11,19.11,0,0,1,0-16.78,14.13,14.13,0,0,1,5.42-5.73,15.58,15.58,0,0,1,8-2,16.19,16.19,0,0,1,6.51,1.28,12.38,12.38,0,0,1,4.76,3.54l.06-4.13ZM646.85,1204a10.75,10.75,0,0,0,0-14.09,9.9,9.9,0,0,0-13.65,0,10.75,10.75,0,0,0,0,14.09,9.92,9.92,0,0,0,13.65,0Z"/><path class="cls-2" d="M685.08,1181.59a10,10,0,0,1,3.47,2l-3.13,5.7a9.14,9.14,0,0,0-5.2-1.69,7.42,7.42,0,0,0-6,2.63,10.65,10.65,0,0,0-2.23,7.14v15.09h-7V1181.5h6.26l.06,4.76a12.22,12.22,0,0,1,4.14-4.07,10.4,10.4,0,0,1,5.26-1.32A13.32,13.32,0,0,1,685.08,1181.59Z"/><path class="cls-2" d="M721.3,1212.43h-9.14l-12.4-13.65v13.65h-7V1168.6h7v25.92l11.08-13h8.58l-13,14.84Z"/><path class="cls-2" d="M749.6,1185.19q4.24,4.32,4.25,12c0,.54,0,1.36-.12,2.44H729a7.73,7.73,0,0,0,3.07,5.39,10.76,10.76,0,0,0,6.7,2,14.78,14.78,0,0,0,5.07-.88,9.75,9.75,0,0,0,3.82-2.31l4.25,4.13a16,16,0,0,1-5.85,3.94,19.65,19.65,0,0,1-7.48,1.44,18.51,18.51,0,0,1-8.86-2,14.38,14.38,0,0,1-5.86-5.73,17.35,17.35,0,0,1-2.06-8.58,17,17,0,0,1,2-8.39,14.22,14.22,0,0,1,5.64-5.66,16.82,16.82,0,0,1,8.39-2Q745.33,1180.87,749.6,1185.19Zm-17.53,3.63a8.78,8.78,0,0,0-3,5.32h18a7.56,7.56,0,0,0-2.79-5.26,9.63,9.63,0,0,0-6.23-1.94A9.13,9.13,0,0,0,732.07,1188.82Z"/><path class="cls-2" d="M780.59,1211.36a17.64,17.64,0,0,1-3.41,1.16,16.88,16.88,0,0,1-3.54.34c-3.26,0-5.76-.93-7.51-2.81s-2.63-4.64-2.63-8.27v-14.34h-5.83v-5.94h5.83v-8.08l7-.75v8.83h8.89v5.94h-8.89v14.34a5.34,5.34,0,0,0,1.09,3.63,4.05,4.05,0,0,0,3.23,1.26,9.23,9.23,0,0,0,3.88-.94Z"/><path class="cls-2" d="M786.1,1175.64a4,4,0,0,1-1.25-3,4.22,4.22,0,0,1,1.25-3.17,4.39,4.39,0,0,1,3.19-1.22,4.6,4.6,0,0,1,3.29,1.22,4.2,4.2,0,0,1,1.28,3.17,4,4,0,0,1-1.28,3,4.56,4.56,0,0,1-3.29,1.22A4.35,4.35,0,0,1,786.1,1175.64Zm-.32,5.86h7v30.93h-7Z"/><path class="cls-2" d="M825.35,1182.65a12,12,0,0,1,4.64,5,17,17,0,0,1,1.63,7.64v17.1h-7v-16.66a9.17,9.17,0,0,0-2-6.32,7,7,0,0,0-5.51-2.26,8.31,8.31,0,0,0-6.26,2.54,8.87,8.87,0,0,0-2.44,6.42v16.28h-7V1181.5h6.27l.06,4.07a14.5,14.5,0,0,1,17.65-2.92Z"/><path class="cls-2" d="M868.93,1203.57a13.08,13.08,0,0,1-5.88,4.72,12.8,12.8,0,0,1,5.69,3.89,9.18,9.18,0,0,1,2,5.94,11.55,11.55,0,0,1-2,6.8,12.87,12.87,0,0,1-5.76,4.47,22.1,22.1,0,0,1-8.67,1.57,21.17,21.17,0,0,1-8.83-1.72,12.91,12.91,0,0,1-5.73-4.89,12.37,12.37,0,0,1-1.78-7.29h6.89a6.36,6.36,0,0,0,2.47,5.51,10.89,10.89,0,0,0,7,2.07,11.57,11.57,0,0,0,6.82-1.82,5.57,5.57,0,0,0,2.57-4.76,5.23,5.23,0,0,0-2.47-4.6,12,12,0,0,0-6.79-1.66,19.7,19.7,0,0,1-8.86-1.88,13.64,13.64,0,0,1-5.86-5.38,15.71,15.71,0,0,1-2.06-8.14,15.34,15.34,0,0,1,2.12-8,14.86,14.86,0,0,1,5.92-5.57,17.94,17.94,0,0,1,8.49-2,16.07,16.07,0,0,1,8.38,2.06l4-4.82,5.07,3.88-4.32,5a17.31,17.31,0,0,1,2.82,4.51,13.32,13.32,0,0,1,.87,5A12.71,12.71,0,0,1,868.93,1203.57Zm-7.67-.6a8.58,8.58,0,0,0,2.66-6.57,8.81,8.81,0,0,0-2.63-6.67,10.94,10.94,0,0,0-14,0,8.81,8.81,0,0,0-2.63,6.67,8.58,8.58,0,0,0,2.66,6.57,11,11,0,0,0,14,0Z"/><path class="cls-2" d="M926.28,1212.93l-5.38-5.2a20.5,20.5,0,0,1-6.58,4,21.23,21.23,0,0,1-7.63,1.41,18.62,18.62,0,0,1-7.46-1.41,11.94,11.94,0,0,1-5.07-3.91,9.47,9.47,0,0,1-1.81-5.7,12.37,12.37,0,0,1,2.34-7.23,20.1,20.1,0,0,1,6.86-5.86,20.69,20.69,0,0,1-3.66-5.13,11.74,11.74,0,0,1-1.16-5.07,10,10,0,0,1,1.69-5.67,11.59,11.59,0,0,1,4.66-4,15.3,15.3,0,0,1,6.74-1.44,13,13,0,0,1,5.94,1.32,9.87,9.87,0,0,1,5.58,9.08q0,6.77-9.21,12.08l8.39,8.08a20.42,20.42,0,0,0,2.82-8.14l6.07,1.31a26.53,26.53,0,0,1-4.19,11.46l5.57,5.39Zm-9.89-9.52-10.64-10.21a14,14,0,0,0-4.57,3.82,7.49,7.49,0,0,0-1.63,4.51,4.63,4.63,0,0,0,2.06,3.85,8.55,8.55,0,0,0,5.26,1.54A15.27,15.27,0,0,0,916.39,1203.41Zm-11.18-28a4.53,4.53,0,0,0-1.66,3.6,5.84,5.84,0,0,0,.88,3.07,25.15,25.15,0,0,0,3.51,4.07,20.51,20.51,0,0,0,5.1-3.85,5.71,5.71,0,0,0,1.47-3.79,4.25,4.25,0,0,0-1.34-3.25,5.16,5.16,0,0,0-3.67-1.26A6.41,6.41,0,0,0,905.21,1175.39Z"/><path class="cls-2" d="M957,1211.11a14,14,0,0,1-5.79-5.66,17.18,17.18,0,0,1-2-8.49,16.82,16.82,0,0,1,2.07-8.42,14.57,14.57,0,0,1,5.79-5.7,17.78,17.78,0,0,1,8.61-2,16.3,16.3,0,0,1,11.71,4.76l-4.26,4.57a9.74,9.74,0,0,0-3.32-2.16,10.64,10.64,0,0,0-4-.79,9.23,9.23,0,0,0-6.92,2.73,10.7,10.7,0,0,0,0,14.12,9.31,9.31,0,0,0,6.92,2.69,11,11,0,0,0,4.25-.82,8.78,8.78,0,0,0,3.38-2.37l4.33,4.69a16.26,16.26,0,0,1-12,4.89A18.19,18.19,0,0,1,957,1211.11Z"/><path class="cls-2" d="M1003.39,1181.59a10,10,0,0,1,3.47,2l-3.13,5.7a9.14,9.14,0,0,0-5.2-1.69,7.46,7.46,0,0,0-6,2.63,10.7,10.7,0,0,0-2.22,7.14v15.09h-7V1181.5h6.26l.06,4.76a12.22,12.22,0,0,1,4.14-4.07,10.4,10.4,0,0,1,5.26-1.32A13.32,13.32,0,0,1,1003.39,1181.59Z"/><path class="cls-2" d="M1036,1185.19q4.24,4.32,4.25,12c0,.54,0,1.36-.12,2.44h-24.73a7.75,7.75,0,0,0,3.06,5.39,10.8,10.8,0,0,0,6.7,2,14.79,14.79,0,0,0,5.08-.88,9.75,9.75,0,0,0,3.82-2.31l4.25,4.13a16,16,0,0,1-5.85,3.94,19.65,19.65,0,0,1-7.48,1.44,18.51,18.51,0,0,1-8.86-2,14.38,14.38,0,0,1-5.86-5.73,17.35,17.35,0,0,1-2.06-8.58,17,17,0,0,1,2-8.39,14.26,14.26,0,0,1,5.63-5.66,16.87,16.87,0,0,1,8.39-2Q1031.72,1180.87,1036,1185.19Zm-17.54,3.63a8.82,8.82,0,0,0-3,5.32h18a7.56,7.56,0,0,0-2.79-5.26,9.63,9.63,0,0,0-6.23-1.94A9.17,9.17,0,0,0,1018.44,1188.82Z"/><path class="cls-2" d="M1077.42,1181.5v30.93h-6.26l-.06-4.14a12.18,12.18,0,0,1-4.76,3.54,16,16,0,0,1-6.51,1.29,15.43,15.43,0,0,1-8-2,14.07,14.07,0,0,1-5.42-5.73,19.11,19.11,0,0,1,0-16.78,14.07,14.07,0,0,1,5.42-5.73,15.52,15.52,0,0,1,8-2,16.19,16.19,0,0,1,6.51,1.28,12.38,12.38,0,0,1,4.76,3.54l.06-4.13Zm-9.64,22.51a10.75,10.75,0,0,0,0-14.09,9.9,9.9,0,0,0-13.65,0,10.75,10.75,0,0,0,0,14.09,9.92,9.92,0,0,0,13.65,0Z"/><path class="cls-2" d="M1106.41,1211.36a17.64,17.64,0,0,1-3.41,1.16,16.75,16.75,0,0,1-3.54.34c-3.25,0-5.76-.93-7.51-2.81s-2.63-4.64-2.63-8.27v-14.34h-5.82v-5.94h5.82v-8.08l7-.75v8.83h8.89v5.94h-8.89v14.34a5.34,5.34,0,0,0,1.09,3.63,4.05,4.05,0,0,0,3.23,1.26,9.23,9.23,0,0,0,3.88-.94Z"/><path class="cls-2" d="M1111.92,1175.64a4.07,4.07,0,0,1-1.25-3,4.26,4.26,0,0,1,1.25-3.17,4.41,4.41,0,0,1,3.19-1.22,4.6,4.6,0,0,1,3.29,1.22,4.17,4.17,0,0,1,1.28,3.17,4,4,0,0,1-1.28,3,4.56,4.56,0,0,1-3.29,1.22A4.37,4.37,0,0,1,1111.92,1175.64Zm-.31,5.86h7v30.93h-7Z"/><path class="cls-2" d="M1150.17,1181.5h7.52l-13.09,30.93h-7.51l-13.15-30.93h7.64l4.32,10.58,4.95,13.08,5-13.08Z"/><path class="cls-2" d="M1187.43,1185.19q4.26,4.32,4.26,12c0,.54,0,1.36-.13,2.44h-24.73a7.76,7.76,0,0,0,3.07,5.39,10.76,10.76,0,0,0,6.7,2,14.78,14.78,0,0,0,5.07-.88,9.68,9.68,0,0,0,3.82-2.31l4.26,4.13a16.15,16.15,0,0,1-5.86,3.94,19.65,19.65,0,0,1-7.48,1.44,18.54,18.54,0,0,1-8.86-2,14.29,14.29,0,0,1-5.85-5.73,18.71,18.71,0,0,1-.07-17,14.28,14.28,0,0,1,5.64-5.66,16.84,16.84,0,0,1,8.39-2Q1183.18,1180.87,1187.43,1185.19Zm-17.53,3.63a8.78,8.78,0,0,0-3,5.32h18a7.59,7.59,0,0,0-2.78-5.26,9.66,9.66,0,0,0-6.23-1.94A9.16,9.16,0,0,0,1169.9,1188.82Z"/><path class="cls-2" d="M1244.34,1181.5v30.93h-6.26l-.06-4.14a12.18,12.18,0,0,1-4.76,3.54,16,16,0,0,1-6.51,1.29,15.49,15.49,0,0,1-8-2,14.11,14.11,0,0,1-5.41-5.73,19.11,19.11,0,0,1,0-16.78,14.11,14.11,0,0,1,5.41-5.73,15.59,15.59,0,0,1,8-2,16.19,16.19,0,0,1,6.51,1.28,12.38,12.38,0,0,1,4.76,3.54l.06-4.13ZM1234.7,1204a10.75,10.75,0,0,0,0-14.09,9.9,9.9,0,0,0-13.65,0,10.75,10.75,0,0,0,0,14.09,9.92,9.92,0,0,0,13.65,0Z"/><path class="cls-2" d="M1282.16,1203.57a13.05,13.05,0,0,1-5.89,4.72,12.83,12.83,0,0,1,5.7,3.89,9.17,9.17,0,0,1,2,5.94,11.55,11.55,0,0,1-2,6.8,12.93,12.93,0,0,1-5.76,4.47,22.14,22.14,0,0,1-8.67,1.57,21.14,21.14,0,0,1-8.83-1.72,12.86,12.86,0,0,1-5.73-4.89,12.37,12.37,0,0,1-1.78-7.29h6.88a6.37,6.37,0,0,0,2.48,5.51,10.89,10.89,0,0,0,7,2.07,11.57,11.57,0,0,0,6.82-1.82,5.59,5.59,0,0,0,2.57-4.76,5.25,5.25,0,0,0-2.47-4.6,12.06,12.06,0,0,0-6.8-1.66,19.76,19.76,0,0,1-8.86-1.88,13.67,13.67,0,0,1-5.85-5.38,15.71,15.71,0,0,1-2.07-8.14,15.34,15.34,0,0,1,2.13-8,14.79,14.79,0,0,1,5.92-5.57,17.9,17.9,0,0,1,8.48-2,16.08,16.08,0,0,1,8.39,2.06l4-4.82,5.07,3.88-4.32,5a17.31,17.31,0,0,1,2.82,4.51,13.32,13.32,0,0,1,.87,5A12.79,12.79,0,0,1,1282.16,1203.57Zm-7.67-.6a8.62,8.62,0,0,0,2.66-6.57,8.85,8.85,0,0,0-2.63-6.67,10.94,10.94,0,0,0-14,0,8.81,8.81,0,0,0-2.63,6.67,8.58,8.58,0,0,0,2.66,6.57,11,11,0,0,0,14,0Z"/><path class="cls-2" d="M1316.91,1185.19q4.26,4.32,4.25,12c0,.54,0,1.36-.12,2.44h-24.73a7.73,7.73,0,0,0,3.07,5.39,10.76,10.76,0,0,0,6.7,2,14.78,14.78,0,0,0,5.07-.88,9.75,9.75,0,0,0,3.82-2.31l4.25,4.13a16,16,0,0,1-5.85,3.94,19.65,19.65,0,0,1-7.48,1.44,18.51,18.51,0,0,1-8.86-2,14.38,14.38,0,0,1-5.86-5.73,17.35,17.35,0,0,1-2.06-8.58,17.15,17.15,0,0,1,2-8.39,14.22,14.22,0,0,1,5.64-5.66,16.82,16.82,0,0,1,8.39-2Q1312.64,1180.87,1316.91,1185.19Zm-17.53,3.63a8.78,8.78,0,0,0-3,5.32h18a7.56,7.56,0,0,0-2.79-5.26,9.63,9.63,0,0,0-6.23-1.94A9.13,9.13,0,0,0,1299.38,1188.82Z"/><path class="cls-2" d="M1351.4,1182.65a12,12,0,0,1,4.64,5,17,17,0,0,1,1.62,7.64v17.1h-7v-16.66a9.21,9.21,0,0,0-2-6.32,7,7,0,0,0-5.51-2.26,8.31,8.31,0,0,0-6.26,2.54,8.87,8.87,0,0,0-2.44,6.42v16.28h-7V1181.5h6.26l.07,4.07a14.5,14.5,0,0,1,17.65-2.92Z"/><path class="cls-2" d="M1371.5,1211.11a14,14,0,0,1-5.79-5.66,17.17,17.17,0,0,1-2-8.49,16.81,16.81,0,0,1,2.06-8.42,14.57,14.57,0,0,1,5.79-5.7,17.78,17.78,0,0,1,8.61-2,16.3,16.3,0,0,1,11.71,4.76l-4.26,4.57a9.79,9.79,0,0,0-3.31-2.16,10.69,10.69,0,0,0-4-.79,9.23,9.23,0,0,0-6.92,2.73,10.7,10.7,0,0,0,0,14.12,9.31,9.31,0,0,0,6.92,2.69,11.11,11.11,0,0,0,4.26-.82,8.93,8.93,0,0,0,3.38-2.37l4.32,4.69a16.26,16.26,0,0,1-12,4.89A18.21,18.21,0,0,1,1371.5,1211.11Z"/><path class="cls-2" d="M1419.78,1181.5h7.51l-19.41,45.2h-7.64l6.26-14.46-12.21-30.74h7.52l5.38,14.08,3.19,8.89,3.57-8.89Z"/><path d="M986.25,907H802.87V842.14H986.25Zm0,81.07H802.87V923.21H986.25Zm0,81.07H802.87v-64.86H986.25Z"/><path d="M1263.06,907v162.14H1198.2V907h-81.08V842.14h227V907Z"/><path class="cls-1" d="M1210.26,875.38Q1177,842.14,1130,842.14t-80.26,33.24q-33.26,33.24-33.24,80.26t33.24,80.26q33.23,33.24,80.26,33.24t80.26-33.24q33.24-33.24,33.24-80.26T1210.26,875.38Z"/><path d="M1110.6,907H997.1V842.14h113.5q47,0,80.27,33.24t33.24,80.26q0,47-33.24,80.26t-80.27,33.24H997.1V900.3H1062v104h48.64a48.64,48.64,0,0,0,0-97.28Z"/><circle class="cls-1" cx="1110.6" cy="955.64" r="69.95"/><path class="cls-1" d="M800.41,907h-154V842.14h154q30.17,0,51.57,21.4t21.4,51.56q0,30.17-21.4,51.57-20.6,20.6-49.3,21.4l81.08,81.07H792.31l-81.08-81.07v81.07H646.38V923.21h154a8.11,8.11,0,1,0,0-16.21Z"/></svg>