<svg xmlns="http://www.w3.org/2000/svg" width="134.111" height="125.153" viewBox="0 0 134.111 125.153"><defs><style>.a{fill:#363636;}</style></defs><g transform="translate(-714.956 -791.319)"><path class="a" d="M696.421,1403.181H662.656c-8.683,0-11.006,2.3-11.006,10.829v49.057c0,8.8.611,9.636,8.756,12.327v25.779c-2.984.771-5.821.214-8.615,0a51.561,51.561,0,0,1-17.775-4.28c-9.5-4.317-15.25-11.672-17.218-21.871a49.85,49.85,0,0,1-.868-9.343q-.128-26.568,0-53.135a50.819,50.819,0,0,1,1.022-10.14c2.127-10.184,8.132-17.308,17.695-21.466,7.386-3.21,15.213-4.28,23.125-4.408,12.131-.2,24.25-.073,36.381-.073a17.36,17.36,0,0,1,2.036.306C696.659,1385.388,696.3,1394.009,696.421,1403.181Z" transform="translate(99.091 -585.096)"/><path class="a" d="M784.04,1464.647a61.684,61.684,0,0,1-.942,10.957c-1.834,9.581-7.282,16.54-16.069,20.869a42.868,42.868,0,0,1-17.665,4.653c-14.675.416-29.417.361-44.122.483a3.1,3.1,0,0,1-.789-.2c-.844-2.831-1.052-20.655-.226-26.384h34.516c6.836-.2,9.6-2.635,9.655-9.367q.208-26.555,0-53.129c-.049-6.115-1.553-7.57-8.56-9.655V1376.58c12.113.251,23.651,1.425,33.367,9.172,6.94,5.5,9.936,13.134,10.688,21.731.269,3.106.2,6.261.2,9.386C784.1,1432.766,784.144,1448.713,784.04,1464.647Z" transform="translate(64.961 -585.16)"/></g></svg>