<svg xmlns="http://www.w3.org/2000/svg" width="134.055" height="125.223" viewBox="0 0 134.055 125.223"><defs><style>.a{fill:#363636;}</style></defs><g transform="translate(-562.855 -791.349)"><path class="a" d="M447.43,1376.792v26.421h-35.6c-6.157.232-8.915,2.959-8.939,9.172-.067,13.629,0,27.259,0,40.875v11.862c.055,6.365,1.406,8.077,7.551,9.783.379.11.752.3,1.192.477v25.9c-2.874,0-5.552.141-8.212-.037a52.077,52.077,0,0,1-17.805-4.17c-9.691-4.28-15.58-11.667-17.591-22.012a50.647,50.647,0,0,1-.862-9.343q-.11-26.568,0-53.135a51.5,51.5,0,0,1,1.015-10.138c2.14-10.187,8.138-17.31,17.732-21.462,7.386-3.216,15.213-4.28,23.137-4.409,12.119-.2,24.25-.073,36.375-.073a16.7,16.7,0,0,1,2.006.287Z" transform="translate(195.745 -585.115)"/><path class="a" d="M535.423,1511.545c.092,21.89-12.547,31.288-29.24,34.272a98.377,98.377,0,0,1-15.445,1.29c-10.621.2-21.248.073-31.869.067-1.07,0-2.14-.147-3.589-.251v-26.213c1.461-.067,2.892-.2,4.323-.2h29.013c8.811,0,11.128-2.336,11.19-11.165.037-5.032,0-10.058,0-15.684,11.832-.049,23.351,0,35.2,0a28.625,28.625,0,0,1,.391,3.21C535.447,1501.737,535.4,1506.641,535.423,1511.545Z" transform="translate(161.486 -630.645)"/><path class="a" d="M558.034,1430.053H522.68v-4.959c0-3.815.055-7.619,0-11.434-.128-7.007-1.461-8.652-8.56-10.578v-26.1c2.262,0,4.519-.073,6.763,0a54.8,54.8,0,0,1,16.735,3.3c12.186,4.482,19.157,13.293,20.325,26.1C558.6,1414.088,558.034,1421.884,558.034,1430.053Z" transform="translate(138.624 -585.303)"/></g></svg>