<svg xmlns="http://www.w3.org/2000/svg" width="151.759" height="125.264" viewBox="0 0 151.759 125.264"><defs><style>.a{fill:#363636;}</style></defs><g transform="translate(-1001.284 -791.34)"><path class="a" d="M1235.162,1428.344c-1.266,11.147-7.227,19.163-17.518,23.846a55.926,55.926,0,0,1-22.672,4.641c-15.537.245-31.074.1-46.617.1a15.658,15.658,0,0,1-1.694-.245c-.569-8.682-.177-17.414-.269-26.531h42.178c1.223,0,2.446.037,3.669-.055,4.849-.4,7.515-2.947,7.766-7.8a102.131,102.131,0,0,0,0-11.44c-.269-4.494-2.709-6.928-7.172-7.515a34.247,34.247,0,0,0-4.482-.128c-27.265,0-54.523-.092-81.782.092-3.767,0-5.9-1.223-7.8-4.28-3.852-6.267-8.1-12.29-12.18-18.411-.728-1.1-1.406-2.214-2.446-3.9,2.018-.11,3.32-.245,4.623-.245,34.076,0,68.152-.11,102.222.086a86.942,86.942,0,0,1,18.625,2.067c16.729,3.779,25.173,13.868,26.133,30.988A111.8,111.8,0,0,1,1235.162,1428.344Z" transform="translate(-82.857 -585.109)"/><path class="a" d="M1148.547,1435.39v88.422c-3.2.96-30.744,1.107-35.177.183V1435.39Z" transform="translate(-94.214 -608.011)"/></g></svg>