<svg xmlns="http://www.w3.org/2000/svg" width="450.25" height="447.484" viewBox="0 0 450.25 447.484"><defs><style>.a{fill:#363636;}.b{fill:#680000;}</style></defs><g transform="translate(-619.365 -90.876)"><path class="a" d="M859.384,674.759a113.83,113.83,0,0,1-31.156,29.481,150.528,150.528,0,0,1-59.55,23.237,164.935,164.935,0,0,1-39.2,1.348,235.227,235.227,0,0,1-68.041-15.964c-16.609-6.579-30.959-16.49-42.214-30.555-7.114-8.9-12.782-18.59-15.694-29.714a51.768,51.768,0,0,1,4.643-38.866,69.829,69.829,0,0,1,9.985-13.963,98.62,98.62,0,0,1,16.38-14.391,30.788,30.788,0,0,1,11.288-5.309c5.811-1.225,10.618.408,14.334,5.068a25.474,25.474,0,0,1,4.99,10.818c1.095,5.244,1.895,10.557,2.765,15.849a304.664,304.664,0,0,0,13.477,53.355c7,19.553,20.068,33.508,38.629,42.472a90.493,90.493,0,0,0,37.012,9.434,56.4,56.4,0,0,0,21.2-3.161c15.384-5.648,25-16.776,30-32.1,3.206-9.8,3.945-19.937,3.194-30.22a105.9,105.9,0,0,0-5.448-27.488,83.725,83.725,0,0,0-35.619-44.538c-15.813-9.871-31.866-19.374-47.94-28.852-19.443-11.435-39.025-22.677-58.521-34.043a140.627,140.627,0,0,1-30.29-23.131c-12.145-12.476-20.611-26.986-24.274-44.105a99.858,99.858,0,0,1-1.442-30.686,130.759,130.759,0,0,1,7.914-34.745c8.678-22.555,23.555-39.952,44.064-52.6a135.544,135.544,0,0,1,22.755-11.177,61.162,61.162,0,0,1,14.6-3.03,1.688,1.688,0,0,1,.343.408c1.5,3.471,1.536,3.516-1.286,5.971a39.849,39.849,0,0,1-4.157,3.1c-8.674,5.746-16.237,12.68-21.84,21.493-12.786,20.092-13.632,40.773-2.512,61.862,3.729,7.069,8.866,13.1,14.428,18.786,9.462,9.679,20.223,17.769,31.258,25.532,21.832,15.351,44.554,29.289,67.383,43.084,11.761,7.11,23.449,14.346,34.925,21.9a153.34,153.34,0,0,1,45.33,45.183A101.136,101.136,0,0,1,876.5,605.008C880.175,630.495,874.221,653.752,859.384,674.759Z" transform="translate(75.738 -191.057)"/><path class="b" d="M713.8,672.416c-.151.617-.343,1.225-.551,1.826-.049.135-.237.225-.641.6-.592-1.785-1.086-3.336-1.634-4.876-6.35-18.324-17.311-33.52-31.609-46.437-11.275-10.185-23.894-18.443-37.163-25.728a481.85,481.85,0,0,0-46.147-21.7c-15.976-6.681-31.339-14.575-46.625-22.653-9.393-4.97-18.908-9.8-28.084-15.171a125.059,125.059,0,0,1-34.423-29.134c-11.749-14.5-19.088-31.086-23.131-49.2a194.305,194.305,0,0,1-4.084-50.19,166.234,166.234,0,0,1,2.81-26.569c6.943-34.178,26.655-57.937,58.6-71.663a152.338,152.338,0,0,1,41.051-10.724,200.3,200.3,0,0,1,30.506-1.548,94.287,94.287,0,0,1,10.414.817,17.207,17.207,0,0,1-1.826.486c-15.862,2.418-29.514,9.577-41.586,19.831-20.313,17.254-33.487,39.1-40.789,64.582a118.023,118.023,0,0,0-4.239,43.774c2.45,26.1,13.134,48.41,31.372,67.146,13.575,13.95,29.657,24.307,47.319,32.262,12.109,5.448,24.323,10.675,36.019,17.005,17.683,9.56,34.386,20.521,49.079,34.349,11.092,10.426,20.587,22.093,27.468,35.758a89.214,89.214,0,0,1,9.915,37.979,70.77,70.77,0,0,1-2.022,19.182Z" transform="translate(159.835 -180.408)"/><path class="b" d="M1032.525,415.714a7.212,7.212,0,0,1-.817-.678c-4.623-4.9-8.984-10.054-13.913-14.632a89.328,89.328,0,0,1-22.653-33.348c-3.765-9.662-7.661-19.28-11.9-28.742a164.521,164.521,0,0,0-40.7-56.193c-15.069-13.44-32.466-22.314-52.448-25.859a109.528,109.528,0,0,0-32.36-.976c-5.86.707-11.663,1.907-17.5,2.777-3.014.449-6.056.67-9.082.992l-.261-.584c.76-.849,1.486-1.727,2.279-2.54,8.833-9.046,19.5-15.11,31.364-19.231a106.821,106.821,0,0,1,49.006-4.9c37.4,4.79,65.37,24.352,85.711,55.54a176.072,176.072,0,0,1,19.063,40.07,22.415,22.415,0,0,1,.894,5.35c.817,10.071,1.45,20.158,2.4,30.22,1.094,11.586,2.156,23.221,5.717,34.39,1.348,4.239,3.124,8.343,4.79,12.472C1032.949,411.973,1033.084,412.655,1032.525,415.714Z" transform="translate(-59.868 -139.997)"/><path class="b" d="M1411.939,544.554a10.782,10.782,0,0,1-1.05.862,102.441,102.441,0,0,1-34.541,13.656c-7.437,1.384-14.469.286-21.424-2.12a52.52,52.52,0,0,1-25.2-18.814c-6.943-9.262-11.1-19.77-13.656-30.972a195.03,195.03,0,0,1-3.778-26.7c-1.266-14.767-2.291-29.55-3.422-44.334-.151-1.895-.355-3.786-.547-5.848.862-.294,1.589-.6,2.356-.784,19.026-4.68,34.092,2.062,46.29,16.417,6.534,7.7,10.209,16.931,12.562,26.675a116.178,116.178,0,0,1,2.859,21.044,83.592,83.592,0,0,0,3.193,19.6c4.019,13.452,12.521,22.784,25.642,27.79C1404.657,542.361,1408.243,543.349,1411.939,544.554Z" transform="translate(-342.325 -256.635)"/></g></svg>