<svg xmlns="http://www.w3.org/2000/svg" width="134.329" height="125.243" viewBox="0 0 134.329 125.243"><defs><style>.a{fill:#680000;}</style></defs><g transform="translate(-410.921 -791.32)"><path class="a" d="M252.763,1376.7v26.292c-1.486.067-3.057.2-4.6.2H165.98a27.438,27.438,0,0,0-4.892.281c-3.785.7-5.9,2.69-6.225,6.53a81.821,81.821,0,0,0-.128,12.633c.342,4.892,3.057,7.264,8.041,7.453,4.494.159,8.994.055,13.489.067h4.892v26.109c-.379.263-.611.538-.819.538-10.9.147-21.8.783-32.6-1.333a55.03,55.03,0,0,1-7.105-1.834c-11.862-4.054-19.371-12.1-21.1-24.642a82.456,82.456,0,0,1,.269-26.06c1.889-10.45,7.949-17.665,17.659-21.945,7.765-3.424,16.008-4.458,24.348-4.494,29.307-.128,58.6-.055,87.9-.049C250.66,1376.437,251.583,1376.6,252.763,1376.7Z" transform="translate(292.292 -585.097)"/><path class="a" d="M253.133,1504.442a43.084,43.084,0,0,1-.978,6.047c-2.232,9.887-8.206,16.7-17.408,20.752a51.864,51.864,0,0,1-17,4.066c-4.066.306-8.157.44-12.229.44q-40.466.055-80.938,0h-5v-26.684h86.135a35.1,35.1,0,0,0,6.115-.514,6.555,6.555,0,0,0,5.454-5.405,14.768,14.768,0,0,0,.336-4.048c-.245-5.008-2.966-7.778-8-7.949-4.769-.159-9.545-.055-14.308-.067h-4.28v-26.2c.459-.251.691-.477.923-.483,11.153-.055,22.324-.844,33.385,1.425C245.4,1469.956,254.827,1483.2,253.133,1504.442Z" transform="translate(291.922 -619.213)"/></g></svg>