<svg xmlns="http://www.w3.org/2000/svg" width="134.19" height="177.602" viewBox="0 0 134.19 177.602"><defs><style>.a{fill:#680000;}</style></defs><g transform="translate(-1224.444 -765.287)"><path class="a" d="M1583.3,1469.588c-.1,13.36-.055,26.708-.073,40.068a12.173,12.173,0,0,1-.379,1.786c-1.394-1.321-2.391-2.226-3.339-3.173q-63.744-63.744-127.524-127.451a8.58,8.58,0,0,1-2.874-6.726c.147-11.991.067-23.981.067-35.972v-4.28c1.315,1.07,2.158,1.645,2.868,2.354q64.484,64.453,128.949,128.918C1582.247,1466.348,1583.3,1467.522,1583.3,1469.588Z" transform="translate(-224.665 -568.554)"/><path class="a" d="M1485.18,1465.1c-.092,18.233-.055,36.467-.073,54.713a12.528,12.528,0,0,1-.281,1.834h-35.2v-93.338l.771-.391c2.262,2.336,4.5,4.69,6.793,6.989l25.681,25.681C1484.153,1461.868,1485.2,1463.03,1485.18,1465.1Z" transform="translate(-224.867 -605.108)"/><path class="a" d="M1645.571,1377.348v93.76c-1.315-1.18-2.214-1.926-3.057-2.751l-29.808-29.759c-1.486-1.48-2.574-2.911-2.556-5.258.1-17.854.055-35.715.073-53.563,0-.673.128-1.339.245-2.446Z" transform="translate(-287.237 -585.452)"/></g></svg>