<svg xmlns="http://www.w3.org/2000/svg" width="151.527" height="125.278" viewBox="0 0 151.527 125.278"><defs><style>.a{fill:#680000;}</style></defs><g transform="translate(-849.631 -791.371)"><path class="a" d="M965.674,1453.732c-2.048.691-4.14,1.223-6.653,2,9.508,15.237,18.827,30.2,28.475,45.675-1.963.122-3.143.251-4.335.251-12.131,0-24.25-.049-36.381.055-2.556,0-4.195-.611-5.65-2.941-13.452-21.786-27.081-43.474-40.643-65.193-.556-.893-.984-1.834-1.682-3.173,1.571-.092,2.733-.214,3.895-.214h37.61c1.357,0,2.733.049,4.084-.085,4.5-.428,7.032-2.709,7.337-7.24a84.036,84.036,0,0,0,0-12.229c-.324-4.537-2.77-6.781-7.337-7.295a35.135,35.135,0,0,0-4.084-.092c-27.515,0-55.031-.055-82.583.067-3.057,0-4.947-.807-6.6-3.479-4.091-6.6-8.56-12.969-12.84-19.432-.673-1-1.272-2.067-2.164-3.51a29.8,29.8,0,0,1,3.351-.4H944.127a67.094,67.094,0,0,1,20.961,3c13.99,4.537,21.817,14.675,22.4,29.35.2,5.3.214,10.633,0,15.934C986.934,1439.106,979.279,1449.152,965.674,1453.732Z" transform="translate(13.511 -585.129)"/><path class="a" d="M900.157,1435.44v88.312c-2.849.984-29.521,1.284-34.9.41-.771-2.892-.978-83.64-.165-88.722Z" transform="translate(2.457 -608.03)"/></g></svg>